<svg xmlns="http://www.w3.org/2000/svg" viewBox="0 0 200 200" class="motif-node-field">
  <circle class="node" cx="20" cy="20" r="4"/>
  <circle class="node" cx="60" cy="15" r="4"/>
  <circle class="node blue" cx="100" cy="25" r="4"/>
  <circle class="node" cx="150" cy="40" r="4"/>
  <circle class="node" cx="180" cy="70" r="4"/>
  <circle class="node" cx="40" cy="60" r="4"/>
  <circle class="node blue" cx="80" cy="70" r="4"/>
  <circle class="node" cx="120" cy="80" r="4"/>
  <circle class="node" cx="160" cy="90" r="4"/>
  <circle class="node blue" cx="30" cy="110" r="4"/>
  <circle class="node" cx="90" cy="120" r="4"/>
  <circle class="node" cx="140" cy="130" r="4"/>
  <circle class="node" cx="180" cy="140" r="4"/>
  <circle class="node" cx="50" cy="150" r="4"/>
  <circle class="node blue" cx="100" cy="160" r="4"/>
  <circle class="node" cx="150" cy="170" r="4"/>
  <circle class="node" cx="20" cy="180" r="4"/>
  <circle class="node" cx="80" cy="180" r="4"/>
  <circle class="node" cx="130" cy="180" r="4"/>
  <line class="link" x1="20" y1="20" x2="60" y2="15"/>
  <line class="link" x1="60" y1="15" x2="100" y2="25"/>
  <line class="link" x1="40" y1="60" x2="80" y2="70"/>
  <line class="link" x1="80" y1="70" x2="120" y2="80"/>
  <line class="link" x1="120" y1="80" x2="160" y2="90"/>
  <line class="link" x1="30" y1="110" x2="90" y2="120"/>
  <line class="link" x1="90" y1="120" x2="140" y2="130"/>
  <line class="link" x1="140" y1="130" x2="180" y2="140"/>
  <line class="link" x1="50" y1="150" x2="100" y2="160"/>
  <line class="link" x1="100" y1="160" x2="150" y2="170"/>
  <line class="link" x1="20" y1="180" x2="80" y2="180"/>
  <line class="link" x1="80" y1="180" x2="130" y2="180"/>
</svg>
